<mxfile host="app.diagrams.net" modified="2020-11-03T22:00:43.387Z" agent="5.0 (Windows NT 10.0; Win64; x64) AppleWebKit/537.36 (KHTML, like Gecko) Chrome/86.0.4240.111 Safari/537.36" etag="ic6iD0MOh2hqP0LhhkAx" version="13.8.8" type="github">
  <diagram id="c7ljWsmcaIzB4k-6wbgI" name="Page-1">
    <mxGraphModel dx="1422" dy="762" grid="1" gridSize="10" guides="1" tooltips="1" connect="1" arrows="1" fold="1" page="1" pageScale="1" pageWidth="850" pageHeight="1100" math="0" shadow="0">
      <root>
        <mxCell id="0" />
        <mxCell id="1" parent="0" />
        <mxCell id="gyb43ap38p-NVdpNNSSF-1" value="Passenger Browsing" style="rounded=0;whiteSpace=wrap;html=1;verticalAlign=top;" vertex="1" parent="1">
          <mxGeometry x="225" y="50" width="400" height="670" as="geometry" />
        </mxCell>
        <mxCell id="gyb43ap38p-NVdpNNSSF-2" value="Passenger" style="shape=umlActor;verticalLabelPosition=bottom;verticalAlign=top;html=1;outlineConnect=0;" vertex="1" parent="1">
          <mxGeometry x="90" y="220" width="30" height="60" as="geometry" />
        </mxCell>
        <mxCell id="gyb43ap38p-NVdpNNSSF-3" value="Manager" style="shape=umlActor;verticalLabelPosition=bottom;verticalAlign=top;html=1;outlineConnect=0;" vertex="1" parent="1">
          <mxGeometry x="720" y="230" width="30" height="60" as="geometry" />
        </mxCell>
        <mxCell id="gyb43ap38p-NVdpNNSSF-4" value="Search and View Flights" style="ellipse;whiteSpace=wrap;html=1;" vertex="1" parent="1">
          <mxGeometry x="365" y="100" width="120" height="80" as="geometry" />
        </mxCell>
        <mxCell id="gyb43ap38p-NVdpNNSSF-5" value="Buy Tickets" style="ellipse;whiteSpace=wrap;html=1;" vertex="1" parent="1">
          <mxGeometry x="365" y="230" width="120" height="80" as="geometry" />
        </mxCell>
        <mxCell id="gyb43ap38p-NVdpNNSSF-6" value="&amp;lt;&amp;lt;Extends&amp;gt;&amp;gt;" style="endArrow=classic;html=1;exitX=0.5;exitY=1;exitDx=0;exitDy=0;entryX=0.5;entryY=0;entryDx=0;entryDy=0;dashed=1;" edge="1" parent="1" source="gyb43ap38p-NVdpNNSSF-4" target="gyb43ap38p-NVdpNNSSF-5">
          <mxGeometry width="50" height="50" relative="1" as="geometry">
            <mxPoint x="400" y="410" as="sourcePoint" />
            <mxPoint x="450" y="360" as="targetPoint" />
          </mxGeometry>
        </mxCell>
        <mxCell id="gyb43ap38p-NVdpNNSSF-7" value="Accept Payment" style="ellipse;whiteSpace=wrap;html=1;" vertex="1" parent="1">
          <mxGeometry x="365" y="345" width="120" height="80" as="geometry" />
        </mxCell>
        <mxCell id="gyb43ap38p-NVdpNNSSF-8" value="" style="endArrow=none;html=1;exitX=1;exitY=0.5;exitDx=0;exitDy=0;" edge="1" parent="1" source="gyb43ap38p-NVdpNNSSF-7" target="gyb43ap38p-NVdpNNSSF-3">
          <mxGeometry width="50" height="50" relative="1" as="geometry">
            <mxPoint x="400" y="410" as="sourcePoint" />
            <mxPoint x="450" y="360" as="targetPoint" />
          </mxGeometry>
        </mxCell>
        <mxCell id="gyb43ap38p-NVdpNNSSF-9" value="" style="endArrow=none;html=1;entryX=0;entryY=0.5;entryDx=0;entryDy=0;" edge="1" parent="1" target="gyb43ap38p-NVdpNNSSF-4">
          <mxGeometry width="50" height="50" relative="1" as="geometry">
            <mxPoint x="120" y="240" as="sourcePoint" />
            <mxPoint x="450" y="360" as="targetPoint" />
          </mxGeometry>
        </mxCell>
        <mxCell id="gyb43ap38p-NVdpNNSSF-10" value="View and Print Tickets" style="ellipse;whiteSpace=wrap;html=1;" vertex="1" parent="1">
          <mxGeometry x="365" y="460" width="120" height="80" as="geometry" />
        </mxCell>
        <mxCell id="gyb43ap38p-NVdpNNSSF-11" value="" style="endArrow=none;html=1;entryX=0;entryY=0.5;entryDx=0;entryDy=0;" edge="1" parent="1" target="gyb43ap38p-NVdpNNSSF-10">
          <mxGeometry width="50" height="50" relative="1" as="geometry">
            <mxPoint x="120" y="240" as="sourcePoint" />
            <mxPoint x="450" y="450" as="targetPoint" />
          </mxGeometry>
        </mxCell>
        <mxCell id="gyb43ap38p-NVdpNNSSF-12" value="Edit Details" style="ellipse;whiteSpace=wrap;html=1;" vertex="1" parent="1">
          <mxGeometry x="365" y="580" width="120" height="80" as="geometry" />
        </mxCell>
        <mxCell id="gyb43ap38p-NVdpNNSSF-13" value="" style="endArrow=none;html=1;entryX=0;entryY=0;entryDx=0;entryDy=0;" edge="1" parent="1" target="gyb43ap38p-NVdpNNSSF-12">
          <mxGeometry width="50" height="50" relative="1" as="geometry">
            <mxPoint x="120" y="240" as="sourcePoint" />
            <mxPoint x="450" y="450" as="targetPoint" />
          </mxGeometry>
        </mxCell>
      </root>
    </mxGraphModel>
  </diagram>
</mxfile>
